HIERARCHY
ROOT Hips
{
	OFFSET 0.000000 0.000000 0.000000
	CHANNELS 6 Xposition Yposition Zposition Zrotation Yrotation Xrotation 
	JOINT LowerBack
	{
		OFFSET 0.000000 0.000000 0.000000
		CHANNELS 3 Zrotation Yrotation Xrotation
		JOINT Spine
		{
			OFFSET 0.028270 2.035590 -0.193380
			CHANNELS 3 Zrotation Yrotation Xrotation
			JOINT Spine1
			{
				OFFSET 0.056720 2.048850 -0.042750
				CHANNELS 3 Zrotation Yrotation Xrotation
				JOINT Neck
				{
					OFFSET 0.000000 0.000000 0.000000
					CHANNELS 3 Zrotation Yrotation Xrotation
					JOINT Neck1
					{
						OFFSET -0.054170 1.746240 0.172020
						CHANNELS 3 Zrotation Yrotation Xrotation
						JOINT Head
						{
							OFFSET 0.104070 1.761360 -0.123970
							CHANNELS 3 Zrotation Yrotation Xrotation
							End Site
							{
								OFFSET 0.000000 0.000000 0.000000
							}
						}
					}
				}
				JOINT LeftShoulder
				{
					OFFSET 0.000000 0.000000 0.000000
					CHANNELS 3 Zrotation Yrotation Xrotation
					JOINT LeftArm
					{
						OFFSET 3.362410 1.200890 -0.311210
						CHANNELS 3 Zrotation Yrotation Xrotation
						JOINT LeftForeArm
						{
							OFFSET 4.983000 -0.000000 -0.000000
							CHANNELS 3 Zrotation Yrotation Xrotation
							JOINT LeftHand
							{
								OFFSET 3.483560 -0.000000 -0.000000
								CHANNELS 3 Zrotation Yrotation Xrotation
								JOINT LeftFingerBase
								{
									OFFSET 0.000000 0.000000 0.000000
									CHANNELS 3 Zrotation Yrotation Xrotation
									JOINT LeftHandIndex1
									{
										OFFSET 0.715260 -0.000000 -0.000000
										CHANNELS 3 Zrotation Yrotation Xrotation
										End Site
										{
											OFFSET 0.000000 0.000000 0.000000
										}
									}
								}
								JOINT LThumb
								{
									OFFSET 0.000000 0.000000 0.000000
									CHANNELS 3 Zrotation Yrotation Xrotation
									End Site
									{
										OFFSET 0.000000 0.000000 0.000000
									}
								}
							}
						}
					}
				}
				JOINT RightShoulder
				{
					OFFSET 0.000000 0.000000 0.000000
					CHANNELS 3 Zrotation Yrotation Xrotation
					JOINT RightArm
					{
						OFFSET -3.136600 1.374050 -0.404650
						CHANNELS 3 Zrotation Yrotation Xrotation
						JOINT RightForeArm
						{
							OFFSET -5.241900 -0.000000 -0.000000
							CHANNELS 3 Zrotation Yrotation Xrotation
							JOINT RightHand
							{
								OFFSET -3.444170 -0.000000 -0.000000
								CHANNELS 3 Zrotation Yrotation Xrotation
								JOINT RightFingerBase
								{
									OFFSET 0.000000 0.000000 0.000000
									CHANNELS 3 Zrotation Yrotation Xrotation
									JOINT RightHandIndex1
									{
										OFFSET -0.622530 -0.000000 -0.000000
										CHANNELS 3 Zrotation Yrotation Xrotation
										End Site
										{
											OFFSET 0.000000 0.000000 0.000000
										}
									}
								}
								JOINT RThumb
								{
									OFFSET 0.000000 0.000000 0.000000
									CHANNELS 3 Zrotation Yrotation Xrotation
									End Site
									{
										OFFSET 0.000000 0.000000 0.000000
									}
								}
							}
						}
					}
				}
			}
		}
	}
}
}
MOTION
Frames: 6
Frame Time: 0.008333
4.624319 17.339555 1.035397 8.940715 -53.468258 7.279380 -1.655198 1.862653 0.756262 0.226599 2.046490 -3.168596 0.289648 2.036173 -2.990046 -5.418689 -1.804244 -3.866833 -0.352615 -0.088720 1.028897 0.000000 0.000000 0.000000 -0.711710 2.307853 -2.074348 -81.684114 -6.043849 28.574165 179.893402 -69.240554 179.962490 4.155934 -0.197733 -0.025765 0.018369 0.547960 -0.000000 0.000000 0.000000 0.000000 0.000000 0.000000 0.000000 -16.126374 4.626099 2.542429 -7.392070 36.797848 -74.307458 -3.441714 19.170156 -0.283991 -35.368201 2.433187 -0.969399 0.767890 -0.548756 -0.000000 0.000000 0.000000 0.000000 0.000000 0.000000 0.000000 
4.631934 17.341579 1.043035 8.938310 -53.620825 7.450482 -1.588251 1.829265 0.734754 0.234667 2.008610 -3.197702 0.251625 2.000104 -3.067744 -5.173538 -1.647046 -3.777580 -0.365424 -0.091211 1.054857 0.000000 0.000000 0.000000 -0.774542 2.244445 -2.039745 -82.052288 -5.118210 27.753216 179.878162 -69.107252 179.962082 4.187796 -0.231240 -0.027204 0.021344 0.550751 0.000000 0.000000 0.000000 0.000000 0.000000 0.000000 0.000000 -16.036890 4.872541 2.462012 -6.161561 36.635218 -71.488125 -3.166190 21.667127 -0.261583 -31.064526 -0.491046 -0.001784 0.689678 -0.495546 -0.000000 0.000000 0.000000 0.000000 0.000000 0.000000 0.000000 
4.640101 17.343245 1.050590 8.930572 -53.807521 7.618155 -1.541542 1.788396 0.721054 0.239891 1.965063 -3.222945 0.214192 1.957910 -3.133269 -4.868497 -1.460036 -3.656995 -0.386468 -0.094696 1.088520 0.000000 0.000000 0.000000 -0.814777 2.217313 -1.998387 -82.430068 -4.261637 26.971698 179.862884 -69.006727 179.961443 4.245419 -0.263302 -0.028839 0.023382 0.553388 -0.000000 0.000000 0.000000 0.000000 0.000000 0.000000 0.000000 -15.838400 5.107423 2.373061 -5.038473 36.501086 -68.810876 -2.892579 24.238592 -0.232767 -26.643614 -2.391661 0.465381 0.590116 -0.463566 -0.000000 0.000000 0.000000 0.000000 0.000000 0.000000 0.000000 
4.649121 17.344512 1.057898 8.915600 -54.025526 7.780603 -1.515671 1.743014 0.718318 0.242030 1.918813 -3.243651 0.177892 1.912585 -3.187444 -4.505664 -1.269197 -3.507920 -0.416383 -0.099159 1.129046 0.000000 0.000000 0.000000 -0.829767 2.228887 -1.949879 -82.813028 -3.494691 26.248647 179.847687 -68.949325 179.960536 4.332349 -0.292722 -0.030571 0.024329 0.555866 -0.000000 0.000000 0.000000 0.000000 0.000000 0.000000 0.000000 -15.522485 5.303730 2.264611 -4.006681 36.410947 -66.227213 -2.633866 26.920086 -0.201357 -22.438166 -3.304391 0.576403 0.482250 -0.453750 -0.000000 0.000000 0.000000 0.000000 0.000000 0.000000 0.000000 
4.658963 17.345347 1.064787 8.895375 -54.270383 7.937299 -1.509896 1.696362 0.728315 0.240936 1.872997 -3.259668 0.142562 1.867334 -3.232006 -4.090654 -1.094194 -3.334329 -0.455471 -0.104542 1.175364 0.000000 0.000000 0.000000 -0.817289 2.276521 -1.894180 -83.194556 -2.831196 25.599894 179.832955 -68.943103 179.959353 4.449307 -0.318804 -0.032502 0.024105 0.558184 -0.000000 0.000000 0.000000 0.000000 0.000000 0.000000 0.000000 -15.087851 5.445160 2.129175 -3.034384 36.357888 -63.674379 -2.396316 29.757257 -0.171303 -18.721015 -3.359790 0.486267 0.378423 -0.463287 -0.000000 0.000000 0.000000 0.000000 0.000000 0.000000 0.000000 
4.669725 17.345774 1.071122 8.869722 -54.537331 8.088030 -1.521079 1.651529 0.752609 0.236854 1.830432 -3.271074 0.107548 1.825078 -3.269444 -3.632633 -0.947261 -3.141152 -0.503775 -0.110754 1.226202 0.000000 0.000000 0.000000 -0.776977 2.353210 -1.831673 -83.565295 -2.278307 25.038127 179.819158 -68.989931 179.957919 4.593721 -0.341329 -0.034531 0.022738 0.560360 0.000000 0.000000 0.000000 0.000000 0.000000 0.000000 0.000000 -14.540507 5.525860 1.964087 -2.089526 36.320792 -61.109230 -2.181071 32.790329 -0.145794 -15.677484 -2.737643 0.315062 0.287793 -0.487063 -0.000000 0.000000 0.000000 0.000000 0.000000 0.000000 0.000000 
